<svg xmlns="http://www.w3.org/2000/svg" viewBox="0 0 1440 320">
  <path fill="#C5E6E8" fill-opacity="1" d="M0,32L62.6,288L125.2,160L187.8,224L250.4,32L313,160L375.7,96L438.3,320L500.9,160L563.5,224L626.1,96L688.7,128L751.3,160L813.9,160L876.5,160L939.1,192L1001.7,64L1064.3,192L1127,0L1189.6,128L1252.2,192L1314.8,224L1377.4,32L1440,320L1440,320L1377.4,320L1314.8,320L1252.2,320L1189.6,320L1127,320L1064.3,320L1001.7,320L939.1,320L876.5,320L813.9,320L751.3,320L688.7,320L626.1,320L563.5,320L500.9,320L438.3,320L375.7,320L313,320L250.4,320L187.8,320L125.2,320L62.6,320L0,320Z"></path>
</svg>