<?xml version="1.0" standalone="no"?><svg xmlns="http://www.w3.org/2000/svg" viewBox="0 0 1440 320"><path fill="#8300E1" fill-opacity="1" d="M0,32L10.4,26.7C20.9,21,42,11,63,58.7C83.5,107,104,213,125,256C146.1,299,167,277,188,240C208.7,203,230,149,250,138.7C271.3,128,292,160,313,192C333.9,224,355,256,376,224C396.5,192,417,96,438,80C459.1,64,480,128,501,138.7C521.7,149,543,107,563,112C584.3,117,605,171,626,192C647,213,668,203,689,218.7C709.6,235,730,277,751,256C772.2,235,793,149,814,144C834.8,139,856,213,877,240C897.4,267,918,245,939,218.7C960,192,981,160,1002,149.3C1022.6,139,1043,149,1064,170.7C1085.2,192,1106,224,1127,229.3C1147.8,235,1169,213,1190,202.7C1210.4,192,1231,192,1252,170.7C1273,149,1294,107,1315,122.7C1335.7,139,1357,213,1377,240C1398.3,267,1419,245,1430,234.7L1440,224L1440,320L1429.6,320C1419.1,320,1398,320,1377,320C1356.5,320,1336,320,1315,320C1293.9,320,1273,320,1252,320C1231.3,320,1210,320,1190,320C1168.7,320,1148,320,1127,320C1106.1,320,1085,320,1064,320C1043.5,320,1023,320,1002,320C980.9,320,960,320,939,320C918.3,320,897,320,877,320C855.7,320,835,320,814,320C793,320,772,320,751,320C730.4,320,710,320,689,320C667.8,320,647,320,626,320C605.2,320,584,320,563,320C542.6,320,522,320,501,320C480,320,459,320,438,320C417.4,320,397,320,376,320C354.8,320,334,320,313,320C292.2,320,271,320,250,320C229.6,320,209,320,188,320C167,320,146,320,125,320C104.3,320,83,320,63,320C41.7,320,21,320,10,320L0,320Z"></path></svg>