<svg xmlns="http://www.w3.org/2000/svg" viewBox="0 0 1440 320">
  <path fill="#8300E1" fill-opacity="1" d="M0,160L13.3,160C26.7,160,53,160,80,181.3C106.7,203,133,245,160,224C186.7,203,213,117,240,101.3C266.7,85,293,139,320,181.3C346.7,224,373,256,400,266.7C426.7,277,453,267,480,234.7C506.7,203,533,149,560,106.7C586.7,64,613,32,640,32C666.7,32,693,64,720,85.3C746.7,107,773,117,800,149.3C826.7,181,853,235,880,224C906.7,213,933,139,960,101.3C986.7,64,1013,64,1040,58.7C1066.7,53,1093,43,1120,80C1146.7,117,1173,203,1200,218.7C1226.7,235,1253,181,1280,154.7C1306.7,128,1333,128,1360,138.7C1386.7,149,1413,171,1427,181.3L1440,192L1440,0L1426.7,0C1413.3,0,1387,0,1360,0C1333.3,0,1307,0,1280,0C1253.3,0,1227,0,1200,0C1173.3,0,1147,0,1120,0C1093.3,0,1067,0,1040,0C1013.3,0,987,0,960,0C933.3,0,907,0,880,0C853.3,0,827,0,800,0C773.3,0,747,0,720,0C693.3,0,667,0,640,0C613.3,0,587,0,560,0C533.3,0,507,0,480,0C453.3,0,427,0,400,0C373.3,0,347,0,320,0C293.3,0,267,0,240,0C213.3,0,187,0,160,0C133.3,0,107,0,80,0C53.3,0,27,0,13,0L0,0Z"></path>
</svg>